<?xml version="1.0" encoding="utf-8"?>
<!-- Generator: Adobe Illustrator 19.1.1, SVG Export Plug-In . SVG Version: 6.00 Build 0)  -->
<svg version="1.1" id="Layer_1" xmlns="http://www.w3.org/2000/svg" xmlns:xlink="http://www.w3.org/1999/xlink" x="0px" y="0px"
	 viewBox="0 0 315 92.8" style="enable-background:new 0 0 315 92.8;" xml:space="preserve">
<style type="text/css">
	.st0{fill:#7865A1;}
	.st1{fill:#FEBE1E;}
	.st2{fill:#F05454;}
	.st3{fill:#FFFFFF;}
	.st4{fill:#5671B6;}
	.st5{fill:#33BEBE;}
	.st6{fill:none;stroke:#FFFFFF;stroke-width:2;stroke-miterlimit:10;}
</style>
<g>
	<path class="st0" d="M200.6,27.3c0,12,10,22.3,22.3,22.3c12.3,0,22.3-10.3,22.3-22.3H200.6z"/>
	<path class="st1" d="M245.2,24.3c0-12-10-22.3-22.3-22.3c-12.3,0-22.3,10.3-22.3,22.3H245.2z"/>
	<rect x="193.3" y="19.4" class="st2" width="59.3" height="5.3"/>
	<rect x="214.8" y="55.5" class="st3" width="16.9" height="17.4"/>
	<path class="st2" d="M253,78.8v12.4h-59V78.8c0-13.1,9-24.2,21-27.7l8.2,12.5l8.1-12.5c4.7,1.4,9.4,3.9,12.7,7.3
		C249.3,63.7,253,70.9,253,78.8z"/>
	<path class="st4" d="M113,78.8v12.4H54V78.8c0-13.1,9.4-24.2,21.4-27.7l4,6.3l4.5,7.4l4.5-7.4l3.7-6.3c4.7,1.4,8.9,3.9,12.3,7.3
		C109.7,63.7,113,70.9,113,78.8z"/>
	<path class="st1" d="M103.2,1.6"/>
	<g>
		<rect x="93.6" y="68.3" class="st2" width="10.2" height="8.6"/>
		<rect x="93.6" y="68.3" class="st3" width="10.2" height="2.2"/>
	</g>
	<circle class="st3" cx="84.3" cy="69.9" r="1.8"/>
	<g>
		<circle class="st2" cx="84.3" cy="78.7" r="1.8"/>
		<circle class="st2" cx="84.3" cy="87.6" r="1.8"/>
	</g>
	<path class="st1" d="M106.1,25.2c0,12.3-10,22.3-22.3,22.3c-12.3,0-22.3-10-22.3-22.3c0-4.5,1.3-8.6,3.6-12.1
		c5.6,4.4,17.6,9.8,33.6-3.8C98.9,9.1,99,9,99.1,8.9c0,0-2,10.2,7,15.8C106.1,24.9,106.1,25,106.1,25.2z"/>
	<g>
		<path class="st2" d="M99.1,8.9C99,9,98.9,9.1,98.7,9.2c-16,13.6-28,8.2-33.6,3.8c-2.3-1.8-3.6-3.4-3.6-3.4
			c4.4,0.7,6.5-0.4,8.4-1.9c4.3-3.5,7.9-4.9,13.9-4.9C89.7,2.9,95.1,5.2,99.1,8.9z"/>
		<path class="st2" d="M106.1,24.7C106.1,24.7,106.1,24.7,106.1,24.7c-9-5.6-7-15.8-7-15.8c2.7,2.5,4.7,5.5,5.9,9.1
			c0.6,1.9,1.6,6.2,3.2,7.1C108.4,25.3,107.1,25.4,106.1,24.7z"/>
	</g>
	<path class="st0" d="M177.1,59.4c0,0-0.1-31.2-0.1-31.7c0-6.1-2.4-12.1-6.6-16.3c-4.2-4.2-9.7-6.8-16.1-6.8
		c-12.7,0-23.1,10.2-23.1,23.1c0,0.4,0,31.1,0,31.1L177.1,59.4z"/>
	<path class="st2" d="M138,19.1c-1.6,2.7-2.5,5.9-2.5,9.3c0,10.3,8.3,18.6,18.6,18.6c10.3,0,18.6-8.3,18.6-18.6
		c0-3.4-0.9-6.5-2.5-9.3H138z"/>
	<path class="st5" d="M182,78.8v12.4h-57V78.8c0-7,2.7-13.5,6.9-18.5c3.3-3.9,7.6-6.9,12.5-8.7c3.2,2.6,8.9,8.4,9.8,18.6
		c0.8-10.1,6.5-16,9.7-18.6c4,1.5,7.7,3.8,10.7,6.8c0.6,0.6,0.7,1.2,1.2,1.9C180,65.3,182,71.8,182,78.8z"/>
	<path class="st3" d="M163.9,51.6c-3.3,2.6-8.8,8.5-9.7,18.6c-0.8-10.2-6.5-16-9.7-18.6C149.3,50.1,156.8,49.2,163.9,51.6z"/>
	<circle class="st0" cx="154.1" cy="71.8" r="2.1"/>
	<g>
		<circle class="st3" cx="154.1" cy="79.3" r="2.1"/>
		<circle class="st2" cx="154.1" cy="86.7" r="2.1"/>
	</g>
	<line class="st6" x1="41.3" y1="91.4" x2="269.3" y2="91.4"/>
	<line class="st6" x1="277.7" y1="91.4" x2="295.7" y2="91.4"/>
	<line class="st6" x1="303" y1="91.4" x2="312.3" y2="91.4"/>
	<line class="st6" x1="34.3" y1="91.4" x2="19" y2="91.4"/>
	<line class="st6" x1="11" y1="91.4" x2="1.7" y2="91.4"/>
</g>
</svg>
