<?xml version="1.0" encoding="utf-8"?>
<!-- Generator: Adobe Illustrator 19.1.1, SVG Export Plug-In . SVG Version: 6.00 Build 0)  -->
<svg version="1.1" id="Layer_1" xmlns="http://www.w3.org/2000/svg" xmlns:xlink="http://www.w3.org/1999/xlink" x="0px" y="0px"
	 viewBox="0 0 38.5 40.1" style="enable-background:new 0 0 38.5 40.1;" xml:space="preserve">
<style type="text/css">
	.st0{fill:#6AC8C4;}
	.st1{fill:none;stroke:#FFFFFF;stroke-width:2;stroke-miterlimit:10;}
	.st2{fill:none;stroke:#FFFFFF;stroke-width:2.1398;stroke-miterlimit:10;}
</style>
<g>
	<path class="st0" d="M23.1,24.8c-3.4,3.4-7.4,6.7-9,5.2c-2.3-2.3-3.6-4.2-8.6-0.2c-5,4-1.2,6.7,1,8.8c2.5,2.5,11.9,0.1,21.2-9.2
		c9.3-9.3,11.7-18.7,9.2-21.2c-2.2-2.2-4.8-6-8.8-1c-4,5-2,6.4,0.2,8.6C29.9,17.4,26.6,21.4,23.1,24.8z"/>
</g>
<path class="st1" d="M1.9,18.1c0-9.2,7.5-16.7,16.7-16.7"/>
<path class="st1" d="M7.9,18.1c0-5.9,4.8-10.7,10.7-10.7"/>
<path class="st2" d="M14,18.1c0-2.5,2-4.6,4.6-4.6"/>
</svg>
