<?xml version="1.0" encoding="utf-8"?>
<!-- Generator: Adobe Illustrator 19.1.1, SVG Export Plug-In . SVG Version: 6.00 Build 0)  -->
<svg version="1.1" id="Layer_1" xmlns="http://www.w3.org/2000/svg" xmlns:xlink="http://www.w3.org/1999/xlink" x="0px" y="0px"
	 viewBox="0 0 27.7 36.5" style="enable-background:new 0 0 27.7 36.5;" xml:space="preserve">
<style type="text/css">
	.st0{fill:#F05454;}
	.st1{fill:#FFFFFF;}
</style>
<g>
	<path class="st0" d="M13.8,0C6.4,0,0.4,6,0.4,13.4c0,7.4,13.4,23.1,13.4,23.1s13.4-15.7,13.4-23.1C27.2,6,21.2,0,13.8,0z
		 M13.8,19.2c-3.3,0-6.1-2.7-6.1-6.1c0-3.3,2.7-6.1,6.1-6.1s6.1,2.7,6.1,6.1C19.9,16.5,17.2,19.2,13.8,19.2z"/>
	<path class="st1" d="M19.9,13.1c0,3.3-2.7,6.1-6.1,6.1s-6.1-2.7-6.1-6.1c0-3.3,2.7-6.1,6.1-6.1S19.9,9.8,19.9,13.1z"/>
</g>
</svg>
