<?xml version="1.0" encoding="utf-8"?>
<!-- Generator: Adobe Illustrator 19.1.1, SVG Export Plug-In . SVG Version: 6.00 Build 0)  -->
<svg version="1.1" id="Layer_1" xmlns="http://www.w3.org/2000/svg" xmlns:xlink="http://www.w3.org/1999/xlink" x="0px" y="0px"
	 viewBox="0 0 38.5 40.9" style="enable-background:new 0 0 38.5 40.9;" xml:space="preserve">
<style type="text/css">
	.st0{fill:#6AC8C4;}
	.st1{fill:none;stroke:#FFFFFF;stroke-width:2;stroke-miterlimit:10;}
	.st2{fill:none;stroke:#FFFFFF;stroke-width:2.1398;stroke-miterlimit:10;}
</style>
<g>
	<g>
		<path class="st0" d="M23,25.4c-3.4,3.4-7.4,6.7-9,5.2c-2.3-2.3-3.6-4.2-8.6-0.2c-5,4-1.2,6.7,1,8.8c2.5,2.5,11.9,0.1,21.2-9.2
			c9.3-9.3,11.7-18.7,9.2-21.2c-2.2-2.2-4.8-6-8.8-1c-4,5-2,6.4,0.2,8.6C29.7,18,26.4,22,23,25.4z"/>
	</g>
	<g>
		<path class="st1" d="M1.7,18.7C1.7,9.5,9.2,2,18.4,2"/>
		<path class="st1" d="M7.7,18.7C7.7,12.8,12.5,8,18.4,8"/>
		<path class="st2" d="M13.8,18.7c0-2.5,2-4.6,4.6-4.6"/>
	</g>
</g>
</svg>
