<?xml version="1.0" encoding="utf-8"?>
<!-- Generator: Adobe Illustrator 19.1.1, SVG Export Plug-In . SVG Version: 6.00 Build 0)  -->
<svg version="1.1" id="Layer_1" xmlns="http://www.w3.org/2000/svg" xmlns:xlink="http://www.w3.org/1999/xlink" x="0px" y="0px"
	 viewBox="0 0 315 92.8" style="enable-background:new 0 0 315 92.8;" xml:space="preserve">
<style type="text/css">
	.st0{fill:#FEBE1E;}
	.st1{fill:#F05454;}
	.st2{fill:#FFFFFF;}
	.st3{fill:#7865A1;}
	.st4{fill:#78BC43;}
	.st5{fill:#6AC8C4;}
	.st6{fill:none;stroke:#FFFFFF;stroke-width:2;stroke-miterlimit:10;}
</style>
<g>
	<g>
		<path class="st0" d="M160,78.8v12.5h-59V78.8c0-13.1,9.4-24.2,21.4-27.7l4,6.3l4.5,7.4l4.5-7.4l3.7-6.3c4.7,1.4,8.9,3.9,12.3,7.3
			C156.7,63.6,160,70.8,160,78.8z"/>
		<path class="st0" d="M150.2,1.6"/>
		<g>
			<rect x="140.6" y="68.2" class="st1" width="10.2" height="8.6"/>
			<rect x="140.6" y="68.2" class="st2" width="10.2" height="2.2"/>
		</g>
		<circle class="st2" cx="131.3" cy="69.8" r="1.8"/>
		<g>
			<circle class="st1" cx="131.3" cy="78.7" r="1.8"/>
			<circle class="st1" cx="131.3" cy="87.5" r="1.8"/>
		</g>
		<path class="st3" d="M153.1,25.1c0,12.3-10,22.3-22.3,22.3c-12.3,0-22.3-10-22.3-22.3c0-4.5,1.3-8.6,3.6-12.1
			c5.6,4.4,17.6,9.8,33.6-3.8c0.1-0.1,0.2-0.2,0.3-0.3c0,0-2,10.2,7,15.8C153.1,24.8,153.1,25,153.1,25.1z"/>
		<g>
			<path class="st4" d="M146.1,8.9c-0.1,0.1-0.2,0.2-0.3,0.3c-16,13.6-28,8.2-33.6,3.8c-2.3-1.8-3.6-3.4-3.6-3.4
				c4.4,0.7,6.5-0.4,8.4-1.9c4.3-3.5,7.9-4.9,13.9-4.9C136.7,2.9,142.1,5.2,146.1,8.9z"/>
			<path class="st4" d="M153.1,24.7C153.1,24.7,153.1,24.7,153.1,24.7c-9-5.6-7-15.8-7-15.8c2.7,2.5,4.7,5.5,5.9,9.1
				c0.6,1.9,1.6,6.2,3.2,7.1C155.4,25.3,154.1,25.4,153.1,24.7z"/>
		</g>
	</g>
	<g>
		<path class="st0" d="M224.1,59.3c0,0-0.1-31.2-0.1-31.7c0-6.1-2.4-12.1-6.6-16.3c-4.2-4.2-9.7-6.8-16.1-6.8
			c-12.7,0-23.1,10.2-23.1,23.1c0,0.4,0,31.1,0,31.1L224.1,59.3z"/>
		<path class="st1" d="M185,19.1c-1.6,2.7-2.5,5.9-2.5,9.3c0,10.3,8.3,18.6,18.6,18.6c10.3,0,18.6-8.3,18.6-18.6
			c0-3.4-0.9-6.5-2.5-9.3H185z"/>
		<path class="st5" d="M229,78.8v12.5h-57V78.8c0-7,2.7-13.5,6.9-18.5c3.3-3.9,7.6-6.9,12.5-8.7c3.2,2.6,8.9,8.4,9.8,18.6
			c0.8-10.1,6.5-16,9.7-18.6c4,1.5,7.7,3.8,10.7,6.8c0.6,0.6,0.7,1.2,1.2,1.9C227,65.3,229,71.8,229,78.8z"/>
		<path class="st2" d="M210.9,51.6c-3.3,2.6-8.8,8.5-9.7,18.6c-0.8-10.2-6.5-16-9.7-18.6C196.3,50.1,203.8,49.2,210.9,51.6z"/>
		<circle class="st1" cx="201.1" cy="71.8" r="2.1"/>
		<g>
			<circle class="st3" cx="201.1" cy="79.2" r="2.1"/>
			<circle class="st3" cx="201.1" cy="86.7" r="2.1"/>
		</g>
	</g>
	<line class="st6" x1="42.3" y1="90.4" x2="270.3" y2="90.4"/>
	<line class="st6" x1="278.7" y1="90.4" x2="296.7" y2="90.4"/>
	<line class="st6" x1="304" y1="90.4" x2="313.3" y2="90.4"/>
	<line class="st6" x1="35.3" y1="90.4" x2="20" y2="90.4"/>
	<line class="st6" x1="12" y1="90.4" x2="2.7" y2="90.4"/>
</g>
</svg>
